<?xml version="1.0" encoding="UTF-8" standalone="no"?>
<!DOCTYPE svg PUBLIC "-//W3C//DTD SVG 20010904//EN"
              "http://www.w3.org/TR/2001/REC-SVG-20010904/DTD/svg10.dtd">

<svg xmlns="http://www.w3.org/2000/svg"
     width="27.7778in" height="20.8333in"
     viewBox="0 0 2000 1500">
  <path id="shape_border_top"
        fill="none" stroke="black" stroke-width="1"
        d="M 2000.00,0.00
           C 2000.00,0.00 1984.72,22.00 1984.72,22.00
             1984.72,22.00 1950.71,70.00 1950.71,70.00
             1950.71,70.00 1938.71,87.00 1938.71,87.00
             1936.91,89.51 1935.01,92.87 1931.83,93.70
             1929.50,94.31 1925.46,93.45 1923.00,93.15
             1910.46,91.65 1908.62,93.34 1902.05,83.00
             1902.05,83.00 1893.81,70.00 1893.81,70.00
             1892.55,68.04 1891.26,65.52 1888.82,64.90
             1886.10,64.20 1877.14,67.66 1874.00,68.58
             1874.00,68.58 1846.00,77.00 1846.00,77.00
             1843.60,77.78 1832.80,81.24 1831.00,81.17
             1826.23,80.99 1818.71,71.57 1815.58,68.00
             1814.05,66.27 1811.52,63.05 1809.00,63.04
             1806.53,63.04 1802.86,67.09 1801.00,68.72
             1801.00,68.72 1787.00,82.00 1787.00,82.00
             1784.90,84.08 1781.89,87.46 1779.00,88.23
             1771.93,90.12 1759.36,77.50 1754.00,73.20
             1751.90,71.51 1748.81,68.53 1746.00,68.59
             1743.96,68.62 1735.31,73.58 1733.00,74.86
             1728.23,77.51 1708.78,88.89 1705.00,89.57
             1703.27,89.88 1696.89,89.21 1695.00,88.87
             1690.46,88.06 1688.14,85.12 1685.00,82.00
             1685.00,82.00 1668.00,64.00 1668.00,64.00
             1665.43,61.43 1661.83,57.00 1658.00,56.83
             1655.02,56.69 1639.99,62.08 1636.00,63.28
             1636.00,63.28 1607.00,72.66 1607.00,72.66
             1607.00,72.66 1569.00,98.34 1569.00,98.34
             1558.18,105.71 1537.59,120.64 1525.00,123.00
             1525.00,123.00 1507.00,96.00 1507.00,96.00
             1507.00,96.00 1496.91,82.85 1496.91,82.85
             1496.91,82.85 1485.00,79.75 1485.00,79.75
             1485.00,79.75 1466.00,76.20 1466.00,76.20
             1466.00,76.20 1449.00,73.08 1449.00,73.08
             1449.00,73.08 1441.51,73.64 1441.51,73.64
             1441.51,73.64 1438.00,81.00 1438.00,81.00
             1438.00,81.00 1432.00,98.00 1432.00,98.00
             1432.00,98.00 1395.00,86.00 1395.00,86.00
             1391.35,84.78 1382.40,81.16 1379.00,81.88
             1376.47,82.42 1372.26,85.49 1370.00,87.00
             1370.00,87.00 1353.00,98.58 1353.00,98.58
             1349.03,101.38 1345.12,105.02 1340.00,103.90
             1328.76,101.45 1327.46,93.41 1322.75,84.00
             1322.75,84.00 1315.74,69.00 1315.74,69.00
             1315.74,69.00 1305.86,49.00 1305.86,49.00
             1304.11,45.06 1300.31,35.10 1296.79,33.02
             1294.28,31.54 1286.19,31.97 1283.00,32.00
             1283.00,32.00 1269.00,33.00 1269.00,33.00
             1269.00,33.00 1241.00,33.00 1241.00,33.00
             1224.33,33.03 1171.73,49.27 1156.00,50.00
             1156.00,50.00 1162.71,72.00 1162.71,72.00
             1163.40,74.39 1165.47,80.87 1165.41,83.00
             1165.33,85.56 1163.17,89.77 1161.22,91.34
             1158.54,93.68 1150.44,91.76 1147.00,91.34
             1147.00,91.34 1106.22,85.72 1106.22,85.72
             1103.23,84.75 1102.45,81.68 1101.42,79.00
             1099.97,75.21 1096.71,63.97 1093.73,62.01
             1090.43,59.85 1081.21,60.13 1077.00,59.58
             1077.00,59.58 1043.00,56.83 1043.00,56.83
             1043.00,56.83 1025.11,55.40 1025.11,55.40
             1020.90,56.26 1018.84,64.39 1017.40,68.00
             1017.40,68.00 1007.40,93.00 1007.40,93.00
             1006.41,95.48 1004.40,101.55 1002.35,103.01
             1000.61,104.25 997.10,104.00 995.00,104.00
             995.00,104.00 956.00,104.00 956.00,104.00
             951.72,103.99 949.11,104.55 946.24,100.85
             943.67,97.53 940.77,88.93 935.96,89.22
             934.09,89.33 924.43,93.43 922.00,94.40
             922.00,94.40 891.00,107.15 891.00,107.15
             887.72,108.55 875.98,113.89 873.09,113.19
             870.42,112.55 868.24,109.11 866.71,107.00
             864.06,103.33 855.27,89.94 851.83,88.61
             849.36,87.66 841.91,89.15 839.00,89.58
             829.75,90.95 820.36,92.99 811.00,93.00
             791.91,93.03 772.95,92.11 754.00,89.85
             754.00,89.85 723.00,86.18 723.00,86.18
             718.52,86.68 715.10,90.81 712.28,94.00
             706.02,101.09 697.95,113.52 688.00,113.89
             677.02,114.30 666.05,96.67 657.00,97.11
             657.00,97.11 642.00,101.00 642.00,101.00
             642.00,101.00 616.00,108.15 616.00,108.15
             611.57,109.35 602.65,111.24 599.51,114.30
             599.51,114.30 579.28,143.00 579.28,143.00
             575.53,148.32 568.91,154.86 562.00,155.48
             558.74,155.78 555.65,153.60 553.00,151.95
             553.00,151.95 537.00,142.19 537.00,142.19
             537.00,142.19 493.00,115.20 493.00,115.20
             493.00,115.20 473.00,103.35 473.00,103.35
             469.20,102.18 466.07,104.75 463.00,106.68
             456.94,110.48 454.08,111.30 450.78,118.00
             448.62,122.41 445.60,133.18 440.89,134.72
             425.22,139.87 421.02,126.04 409.00,118.82
             409.00,118.82 380.00,108.00 380.00,108.00
             377.50,107.15 369.14,104.22 367.39,102.92
             364.92,101.08 363.14,96.77 361.75,94.00
             356.66,83.79 354.52,72.28 353.00,61.00
             353.00,61.00 290.00,72.61 290.00,72.61
             282.93,73.94 264.05,78.41 258.00,77.32
             255.15,76.81 248.92,75.51 246.96,73.47
             242.94,69.27 238.69,52.91 233.79,50.02
             231.71,48.80 228.38,49.00 226.00,48.96
             226.00,48.96 215.00,48.96 215.00,48.96
             215.00,48.96 204.00,48.00 204.00,48.00
             194.12,47.95 192.98,48.04 183.00,46.85
             183.00,46.85 149.00,42.72 149.00,42.72
             144.37,42.78 141.28,46.14 138.00,49.05
             132.10,54.28 122.96,64.70 115.00,64.98
             113.09,65.05 110.11,65.09 108.50,63.98
             104.44,61.18 105.12,52.26 99.87,49.31
             99.87,49.31 77.00,44.30 77.00,44.30
             73.49,43.09 68.66,40.54 65.00,41.32
             65.00,41.32 41.00,55.00 41.00,55.00
             41.00,55.00 0.00,0.00 0.00,0.00
             0.00,0.00 2000.00,0.00 2000.00,0.00 Z" />
  <path id="shape_rock_top"
        fill="none" stroke="black" stroke-width="1"
        d="M 1301.00,253.60
           C 1303.91,252.67 1315.23,254.58 1319.00,254.93
             1319.00,254.93 1368.00,259.94 1368.00,259.94
             1373.73,259.75 1378.24,256.26 1383.00,253.40
             1383.00,253.40 1405.00,240.40 1405.00,240.40
             1407.60,238.84 1414.45,234.40 1417.00,233.88
             1421.17,233.02 1434.43,238.87 1439.00,240.58
             1439.00,240.58 1460.00,247.84 1460.00,247.84
             1460.00,247.84 1477.00,247.84 1477.00,247.84
             1477.00,247.84 1487.00,290.00 1487.00,290.00
             1493.08,290.51 1511.53,294.92 1515.39,299.22
             1515.39,299.22 1534.80,331.00 1534.80,331.00
             1536.84,334.40 1540.52,341.95 1544.10,343.40
             1544.10,343.40 1555.00,344.42 1555.00,344.42
             1555.00,344.42 1589.00,347.09 1589.00,347.09
             1589.00,347.09 1614.00,349.09 1614.00,349.09
             1614.00,349.09 1624.00,350.00 1624.00,350.00
             1635.49,350.13 1640.90,349.28 1652.00,348.17
             1652.00,348.17 1688.00,344.83 1688.00,344.83
             1688.00,344.83 1716.00,342.00 1716.00,342.00
             1716.00,342.00 1724.27,399.00 1724.27,399.00
             1724.27,399.00 1734.00,466.00 1734.00,466.00
             1734.00,466.00 1699.00,462.28 1699.00,462.28
             1699.00,462.28 1653.00,456.85 1653.00,456.85
             1653.00,456.85 1626.00,454.00 1626.00,454.00
             1626.00,454.00 1624.00,480.00 1624.00,480.00
             1624.00,480.00 1586.00,471.80 1586.00,471.80
             1582.13,471.01 1572.26,468.50 1569.00,468.81
             1564.83,469.21 1545.36,477.86 1540.00,480.00
             1537.12,481.15 1531.96,483.61 1529.00,483.41
             1526.26,483.22 1518.84,479.59 1516.00,478.30
             1506.89,474.20 1487.09,464.12 1478.00,464.17
             1478.00,464.17 1464.00,464.17 1464.00,464.17
             1462.26,464.03 1460.71,464.03 1459.00,464.17
             1459.00,464.17 1427.00,480.78 1427.00,480.78
             1420.90,484.00 1406.49,493.24 1400.00,492.39
             1400.00,492.39 1373.00,484.33 1373.00,484.33
             1369.93,483.33 1362.99,480.65 1360.00,481.54
             1357.19,482.37 1353.13,486.81 1351.09,489.00
             1343.36,497.29 1341.17,503.98 1329.00,504.00
             1329.00,504.00 1272.00,506.00 1272.00,506.00
             1263.31,505.89 1250.62,501.31 1242.00,498.72
             1238.82,497.76 1230.95,495.15 1228.00,495.68
             1224.42,496.32 1210.03,506.67 1206.00,509.33
             1202.99,511.32 1199.82,514.01 1196.00,513.08
             1196.00,513.08 1174.00,500.89 1174.00,500.89
             1174.00,500.89 1143.00,489.31 1143.00,489.31
             1139.34,488.00 1128.22,483.25 1125.00,483.71
             1122.26,484.11 1117.44,487.71 1115.00,489.33
             1109.15,493.22 1093.62,501.68 1090.53,507.09
             1087.68,512.08 1084.81,525.04 1081.49,528.37
             1078.59,531.28 1063.84,539.29 1060.00,537.91
             1055.42,536.27 1051.22,529.23 1046.00,530.55
             1040.56,531.92 1030.23,542.37 1024.00,541.26
             1021.53,540.82 1010.06,534.78 1007.00,533.25
             1007.00,533.25 968.00,513.25 968.00,513.25
             968.00,513.25 942.00,500.22 942.00,500.22
             942.00,500.22 917.00,487.45 917.00,487.45
             917.00,487.45 847.00,465.28 847.00,465.28
             847.00,465.28 815.00,455.28 815.00,455.28
             807.93,453.15 804.64,451.10 797.00,451.00
             794.46,450.97 790.29,451.22 788.00,450.41
             784.53,449.17 773.56,439.51 770.00,436.61
             762.83,430.79 749.14,420.70 743.89,414.00
             743.89,414.00 723.63,387.00 723.63,387.00
             721.68,384.40 715.81,376.15 713.70,374.60
             709.74,371.68 699.33,373.99 694.00,374.00
             694.00,374.00 664.00,375.00 664.00,375.00
             664.00,375.00 647.00,376.00 647.00,376.00
             647.00,376.00 637.00,376.00 637.00,376.00
             626.68,375.82 630.58,369.26 624.61,364.93
             622.65,363.51 619.37,363.15 617.00,362.75
             612.57,362.01 601.89,359.76 598.00,360.34
             592.32,361.19 573.76,369.25 569.00,372.64
             565.09,375.43 551.21,386.13 548.00,387.28
             545.58,388.14 541.61,388.05 539.00,387.99
             539.00,387.99 490.00,373.52 490.00,373.52
             484.58,372.37 461.04,375.38 454.00,376.17
             442.76,377.42 426.92,387.82 416.00,392.69
             410.50,395.14 403.02,396.20 397.00,397.40
             390.20,398.76 381.77,400.92 375.00,401.00
             368.79,401.07 357.06,401.06 352.99,395.37
             351.91,393.86 351.41,389.01 351.08,387.00
             350.17,381.47 349.17,371.88 347.45,367.00
             347.45,367.00 338.39,347.00 338.39,347.00
             336.81,339.55 340.83,321.15 348.10,317.43
             352.56,315.15 367.55,314.94 373.00,314.96
             380.50,315.09 386.38,317.33 394.00,314.96
             412.38,309.05 424.81,294.25 446.00,291.34
             452.47,290.45 468.26,297.88 475.00,300.42
             478.13,301.60 483.76,304.31 487.00,303.49
             489.63,302.82 498.28,296.34 501.00,294.42
             511.95,286.68 515.45,285.85 527.00,280.26
             530.79,278.42 536.83,275.30 541.00,275.54
             551.58,276.16 586.17,286.49 598.00,289.86
             602.67,291.19 616.00,295.77 620.00,295.50
             627.40,295.00 641.68,285.16 648.00,281.00
             654.19,276.93 669.83,270.47 677.00,268.82
             681.98,267.67 688.16,270.47 693.00,271.86
             693.00,271.86 729.00,282.29 729.00,282.29
             736.29,283.42 739.05,277.63 745.00,278.74
             745.00,278.74 768.00,288.31 768.00,288.31
             773.48,288.72 782.23,283.69 786.91,286.64
             788.53,287.65 793.29,293.20 795.00,295.00
             795.00,295.00 814.97,317.00 814.97,317.00
             817.52,319.70 820.96,324.31 824.01,326.02
             828.03,328.25 838.53,328.14 844.00,329.36
             844.00,329.36 865.00,337.72 865.00,337.72
             865.00,337.72 878.91,343.53 878.91,343.53
             883.93,346.37 891.80,358.87 895.63,364.00
             897.46,366.46 899.97,370.37 903.04,371.23
             905.44,371.91 913.25,369.97 916.00,369.35
             916.00,369.35 948.00,362.10 948.00,362.10
             948.00,362.10 957.00,356.01 957.00,356.01
             958.83,355.14 968.90,354.00 971.00,354.26
             974.93,354.75 982.34,359.80 986.00,362.00
             986.00,362.00 1016.00,379.80 1016.00,379.80
             1020.14,382.29 1028.22,388.55 1033.00,387.43
             1033.00,387.43 1046.00,381.31 1046.00,381.31
             1046.00,381.31 1087.00,361.69 1087.00,361.69
             1098.62,356.36 1105.37,351.49 1119.00,352.04
             1123.90,352.24 1132.87,354.84 1138.00,356.13
             1138.00,356.13 1171.00,364.13 1171.00,364.13
             1182.46,366.91 1186.31,369.91 1198.00,366.58
             1201.78,365.50 1212.97,363.02 1215.28,360.49
             1217.04,358.56 1221.78,342.34 1222.48,339.00
             1222.48,339.00 1224.00,317.00 1224.00,317.00
             1224.00,317.00 1225.00,302.00 1225.00,302.00
             1230.41,302.02 1241.24,302.69 1246.00,304.80
             1249.49,306.34 1261.10,313.01 1264.00,312.77
             1267.88,312.44 1274.17,304.04 1276.85,301.00
             1279.82,297.63 1291.29,285.20 1292.39,282.00
             1293.50,278.74 1290.94,264.84 1290.00,261.00
             1292.83,259.10 1298.30,254.46 1301.00,253.60 Z" />
  <path id="shape_rock_bottom"
        fill="none" stroke="black" stroke-width="1"
        d="M 862.00,1001.00
           C 864.99,1000.98 867.34,1001.13 869.96,999.40
             878.75,993.59 887.42,973.61 899.00,970.82
             905.15,969.34 928.13,963.85 933.00,964.50
             933.00,964.50 979.00,976.42 979.00,976.42
             983.32,977.63 996.22,981.49 1000.00,981.17
             1002.91,980.93 1012.63,976.93 1016.00,975.68
             1016.00,975.68 1049.00,963.58 1049.00,963.58
             1055.82,961.02 1063.79,957.19 1071.00,957.01
             1071.00,957.01 1105.00,959.91 1105.00,959.91
             1108.13,960.14 1120.66,960.83 1122.70,962.02
             1125.20,963.48 1129.02,969.44 1130.86,972.00
             1130.86,972.00 1147.86,996.00 1147.86,996.00
             1147.86,996.00 1162.32,1015.82 1162.32,1015.82
             1165.36,1019.01 1173.91,1024.20 1178.00,1027.02
             1178.00,1027.02 1197.00,1039.75 1197.00,1039.75
             1201.56,1042.21 1204.34,1040.72 1209.00,1039.75
             1213.16,1038.70 1231.14,1034.20 1234.00,1034.59
             1236.53,1034.93 1240.62,1037.48 1243.00,1038.77
             1252.32,1043.83 1256.10,1047.98 1267.00,1048.00
             1267.00,1048.00 1285.00,1048.00 1285.00,1048.00
             1285.00,1048.00 1301.00,1047.00 1301.00,1047.00
             1301.00,1047.00 1319.00,1047.00 1319.00,1047.00
             1319.00,1047.00 1360.00,1043.09 1360.00,1043.09
             1364.77,1042.82 1374.83,1044.89 1380.00,1045.75
             1380.00,1045.75 1412.00,1050.75 1412.00,1050.75
             1417.96,1051.73 1425.07,1053.40 1431.00,1052.83
             1431.00,1052.83 1468.00,1046.43 1468.00,1046.43
             1468.00,1046.43 1493.00,1036.60 1493.00,1036.60
             1493.00,1036.60 1513.00,1028.60 1513.00,1028.60
             1516.34,1027.27 1520.37,1025.13 1524.00,1025.71
             1524.00,1025.71 1544.00,1032.95 1544.00,1032.95
             1544.00,1032.95 1581.00,1047.00 1581.00,1047.00
             1579.86,1051.99 1573.52,1067.75 1574.27,1071.28
             1574.27,1071.28 1589.25,1102.00 1589.25,1102.00
             1590.09,1103.69 1591.99,1107.25 1592.22,1109.00
             1592.93,1114.48 1586.60,1118.28 1582.00,1119.11
             1578.62,1119.73 1576.42,1119.92 1573.00,1120.00
             1573.00,1120.00 1559.00,1121.00 1559.00,1121.00
             1559.00,1121.00 1562.00,1149.00 1562.00,1149.00
             1562.00,1149.00 1539.00,1150.60 1539.00,1150.60
             1535.35,1151.94 1533.32,1155.32 1530.00,1156.98
             1527.56,1158.19 1524.66,1157.99 1522.00,1158.00
             1522.00,1158.00 1491.00,1159.43 1491.00,1159.43
             1485.05,1160.98 1479.79,1168.22 1474.00,1168.49
             1467.17,1168.81 1456.19,1164.62 1450.00,1161.86
             1450.00,1161.86 1424.00,1150.22 1424.00,1150.22
             1420.95,1148.79 1410.69,1143.86 1408.00,1143.48
             1404.21,1142.94 1393.24,1146.66 1389.00,1147.86
             1389.00,1147.86 1346.00,1161.81 1346.00,1161.81
             1340.93,1163.73 1327.75,1169.24 1323.00,1168.63
             1311.57,1167.18 1311.67,1155.00 1306.61,1152.07
             1304.92,1151.08 1296.46,1151.92 1294.00,1152.07
             1294.00,1152.07 1280.00,1153.63 1280.00,1153.63
             1280.00,1153.63 1247.00,1169.25 1247.00,1169.25
             1239.18,1173.13 1230.90,1178.88 1222.00,1179.00
             1222.00,1179.00 1209.00,1179.00 1209.00,1179.00
             1198.41,1178.98 1193.51,1175.24 1184.00,1171.15
             1184.00,1171.15 1146.00,1154.58 1146.00,1154.58
             1146.00,1154.58 1130.00,1147.75 1130.00,1147.75
             1122.69,1145.93 1117.67,1154.82 1111.00,1156.46
             1108.72,1157.01 1099.80,1155.80 1097.00,1155.42
             1090.00,1154.49 1079.42,1154.05 1073.00,1152.06
             1068.11,1150.55 1062.14,1145.25 1058.00,1142.00
             1058.00,1142.00 1036.00,1125.00 1036.00,1125.00
             1033.70,1123.19 1026.26,1117.10 1024.00,1116.37
             1019.78,1115.01 1006.52,1123.52 1002.00,1125.75
             999.73,1126.87 996.67,1128.74 994.09,1127.77
             991.41,1126.76 987.21,1120.45 985.37,1118.00
             985.37,1118.00 972.63,1101.00 972.63,1101.00
             971.00,1098.83 967.92,1094.32 965.70,1093.02
             963.40,1091.68 958.70,1091.97 956.00,1092.00
             956.00,1092.00 942.00,1093.00 942.00,1093.00
             942.00,1093.00 903.00,1095.00 903.00,1095.00
             898.67,1095.05 892.77,1096.42 889.00,1095.77
             882.65,1094.68 876.10,1086.75 870.00,1084.70
             870.00,1084.70 850.00,1082.91 850.00,1082.91
             850.00,1082.91 822.00,1081.00 822.00,1081.00
             822.00,1081.00 831.40,1035.00 831.40,1035.00
             831.40,1035.00 838.00,1000.00 838.00,1000.00
             838.00,1000.00 862.00,1001.00 862.00,1001.00 Z" />
  <path id="shape_rock_left"
        fill="none" stroke="black" stroke-width="1"
        d="M 473.00,1155.00
           C 472.98,1152.25 473.17,1149.64 471.40,1147.33
             469.13,1144.37 450.58,1134.63 446.00,1132.00
             446.00,1132.00 428.00,1121.85 428.00,1121.85
             423.22,1119.11 419.24,1117.44 420.15,1111.01
             421.33,1102.66 440.14,1098.57 442.52,1091.90
             443.45,1089.28 440.68,1080.20 440.00,1077.00
             440.00,1077.00 430.48,1036.00 430.48,1036.00
             430.37,1029.94 437.64,1020.02 436.51,1016.61
             435.32,1013.04 431.04,1013.38 426.25,1004.00
             426.25,1004.00 388.75,930.00 388.75,930.00
             385.70,923.93 375.55,906.40 374.20,901.00
             373.91,898.77 373.96,894.40 374.20,892.00
             374.04,889.83 374.02,888.00 375.02,886.00
             376.44,883.16 381.58,878.44 384.00,876.00
             384.00,876.00 395.01,864.00 395.01,864.00
             397.67,861.28 404.37,856.12 403.39,852.00
             402.95,850.19 400.07,846.62 398.88,845.00
             398.88,845.00 387.88,830.00 387.88,830.00
             387.88,830.00 353.63,783.00 353.63,783.00
             353.63,783.00 342.63,768.00 342.63,768.00
             340.63,765.31 338.04,762.54 337.96,759.00
             337.74,748.07 346.68,742.97 354.00,736.73
             355.54,735.42 360.94,731.27 361.31,729.49
             361.70,727.61 359.33,724.52 358.33,723.00
             358.33,723.00 348.66,708.00 348.66,708.00
             348.66,708.00 328.95,678.00 328.95,678.00
             326.78,674.59 321.48,667.40 320.51,664.00
             319.80,661.54 319.97,654.86 320.00,652.00
             320.00,652.00 321.16,637.00 321.16,637.00
             321.00,635.30 320.91,631.59 321.16,630.09
             322.46,625.83 331.33,620.34 335.00,617.71
             335.00,617.71 368.00,593.42 368.00,593.42
             376.99,587.06 379.80,583.02 391.00,583.04
             391.00,583.04 406.00,583.04 406.00,583.04
             406.00,583.04 418.00,584.00 418.00,584.00
             418.00,584.00 505.00,585.00 505.00,585.00
             505.00,585.00 520.00,586.00 520.00,586.00
             520.00,586.00 531.00,586.00 531.00,586.00
             535.07,586.01 539.17,585.47 540.95,590.06
             542.42,593.82 540.15,598.46 538.81,602.00
             538.81,602.00 528.96,629.00 528.96,629.00
             526.76,633.14 523.07,635.95 524.21,641.00
             524.21,641.00 533.58,663.00 533.58,663.00
             533.58,663.00 553.30,709.00 553.30,709.00
             553.30,709.00 564.57,736.00 564.57,736.00
             565.42,741.02 563.66,749.64 559.86,753.12
             556.14,756.51 546.09,762.41 545.03,767.01
             544.45,769.52 546.71,779.76 547.25,783.00
             547.25,783.00 554.00,825.00 554.00,825.00
             554.00,825.00 575.00,825.00 575.00,825.00
             575.15,831.80 576.66,838.00 575.82,845.00
             575.82,845.00 572.28,858.00 572.28,858.00
             570.87,862.71 565.33,878.08 566.46,882.00
             567.08,884.17 571.22,889.86 572.72,892.00
             572.72,892.00 586.02,911.00 586.02,911.00
             589.56,916.11 592.91,920.40 592.70,927.00
             592.57,930.99 589.49,934.77 587.33,938.00
             587.33,938.00 575.67,956.00 575.67,956.00
             573.72,958.93 570.02,963.40 570.38,967.00
             570.62,969.43 575.39,978.26 576.75,981.00
             576.75,981.00 591.26,1011.00 591.26,1011.00
             593.86,1016.37 598.37,1022.94 597.69,1029.00
             597.01,1034.91 593.34,1050.66 589.78,1055.00
             584.12,1061.86 571.44,1069.47 572.17,1079.00
             572.17,1079.00 573.00,1094.00 573.00,1094.00
             573.00,1094.00 574.00,1109.00 574.00,1109.00
             574.00,1109.00 574.96,1123.00 574.96,1123.00
             574.96,1123.00 574.96,1138.00 574.96,1138.00
             575.00,1140.13 575.25,1143.58 574.01,1145.37
             571.71,1148.65 551.57,1156.27 548.60,1159.63
             545.86,1162.74 547.00,1178.28 547.00,1183.00
             547.00,1183.00 472.00,1178.00 472.00,1178.00
             473.59,1171.44 473.05,1161.95 473.00,1155.00 Z" />
  <path id="shape_border_right"
        fill="none" stroke="black" stroke-width="1"
        d="M 2000.00,15.00
           C 2000.00,15.00 2000.00,40.00 2000.00,40.00
             2000.00,40.00 2000.00,130.00 2000.00,130.00
             2000.00,130.00 2000.00,439.00 2000.00,439.00
             2000.00,439.00 2000.00,1500.00 2000.00,1500.00
             2000.00,1500.00 1976.00,1477.00 1976.00,1477.00
             1976.00,1477.00 1933.00,1434.00 1933.00,1434.00
             1933.00,1434.00 1891.00,1392.00 1891.00,1392.00
             1891.00,1392.00 1868.00,1368.00 1868.00,1368.00
             1868.00,1368.00 1900.00,1354.80 1900.00,1354.80
             1900.00,1354.80 1913.40,1348.50 1913.40,1348.50
             1913.40,1348.50 1915.00,1340.00 1915.00,1340.00
             1915.00,1340.00 1915.00,1317.00 1915.00,1317.00
             1915.00,1317.00 1916.00,1300.00 1916.00,1300.00
             1916.00,1300.00 1916.00,1269.00 1916.00,1269.00
             1916.00,1269.00 1877.00,1259.00 1877.00,1259.00
             1875.32,1246.28 1878.69,1240.98 1882.28,1229.00
             1882.28,1229.00 1893.86,1190.00 1893.86,1190.00
             1893.86,1190.00 1898.98,1173.00 1898.98,1173.00
             1899.61,1170.90 1900.85,1167.47 1899.81,1165.39
             1898.40,1162.58 1884.51,1156.51 1881.00,1154.75
             1881.00,1154.75 1832.00,1130.00 1832.00,1130.00
             1832.00,1130.00 1868.00,1063.00 1868.00,1063.00
             1868.00,1063.00 1847.00,1054.00 1847.00,1054.00
             1847.00,1054.00 1844.36,1040.00 1844.36,1040.00
             1844.36,1040.00 1849.67,1030.00 1849.67,1030.00
             1849.67,1030.00 1861.58,1012.00 1861.58,1012.00
             1861.58,1012.00 1883.36,979.00 1883.36,979.00
             1883.36,979.00 1913.00,944.00 1913.00,944.00
             1913.00,944.00 1880.00,932.67 1880.00,932.67
             1876.58,931.53 1869.53,930.06 1867.89,926.73
             1862.85,916.50 1873.19,899.43 1876.00,889.00
             1869.47,887.81 1854.88,887.07 1850.92,881.87
             1845.74,875.07 1850.76,860.94 1852.08,853.00
             1852.08,853.00 1857.58,821.00 1857.58,821.00
             1858.19,817.57 1858.91,809.94 1860.85,807.39
             1862.46,805.28 1865.69,803.95 1868.00,802.69
             1873.53,799.69 1877.83,796.76 1884.00,795.00
             1884.00,795.00 1874.00,756.00 1874.00,756.00
             1872.93,752.25 1868.86,738.04 1869.40,735.00
             1870.60,728.22 1883.55,721.83 1883.18,716.00
             1883.02,713.48 1877.63,705.52 1876.05,703.00
             1869.01,691.76 1864.78,688.45 1865.00,675.00
             1865.13,667.72 1866.22,669.13 1877.00,663.00
             1877.00,663.00 1905.00,647.75 1905.00,647.75
             1910.61,644.80 1914.79,641.77 1921.00,640.00
             1918.93,632.76 1909.00,619.97 1912.57,613.18
             1914.70,609.16 1924.85,603.66 1929.00,601.05
             1931.29,599.61 1935.43,597.61 1936.08,594.82
             1936.61,592.54 1933.83,584.53 1933.00,582.00
             1933.00,582.00 1923.98,553.00 1923.98,553.00
             1923.11,550.23 1920.40,543.56 1920.92,541.00
             1921.58,537.78 1925.59,534.95 1928.00,532.87
             1928.00,532.87 1949.00,515.00 1949.00,515.00
             1949.00,515.00 1909.00,481.05 1909.00,481.05
             1903.57,476.19 1902.63,476.29 1901.60,469.00
             1901.32,467.16 1900.90,464.99 1901.60,463.21
             1903.19,459.27 1914.03,454.71 1918.00,453.00
             1918.00,453.00 1901.25,419.00 1901.25,419.00
             1899.32,415.15 1895.26,409.29 1896.48,405.00
             1898.36,398.43 1905.75,394.95 1911.00,391.28
             1925.32,381.27 1923.04,383.42 1933.02,369.00
             1934.75,366.51 1938.57,361.86 1938.91,359.00
             1939.38,355.13 1933.29,345.67 1931.31,342.00
             1931.31,342.00 1918.69,317.00 1918.69,317.00
             1914.62,309.48 1909.54,302.92 1910.04,294.00
             1910.45,286.80 1919.97,276.07 1924.29,270.00
             1925.53,268.26 1928.86,263.98 1929.10,262.04
             1929.66,257.61 1920.98,254.43 1918.35,251.48
             1915.31,248.07 1918.57,237.92 1920.90,234.42
             1920.90,234.42 1933.00,222.00 1933.00,222.00
             1933.00,222.00 1954.00,201.28 1954.00,201.28
             1956.95,198.69 1969.85,187.10 1971.00,184.42
             1972.25,181.52 1967.52,176.32 1965.86,174.00
             1959.71,165.41 1954.99,162.53 1958.00,152.00
             1954.30,150.59 1941.66,143.28 1940.35,139.82
             1939.50,137.60 1940.95,134.17 1941.67,132.00
             1941.67,132.00 1948.00,113.00 1948.00,113.00
             1948.00,113.00 1933.00,109.00 1933.00,109.00
             1933.00,109.00 1933.56,95.00 1933.56,95.00
             1933.56,95.00 1940.58,84.00 1940.58,84.00
             1940.58,84.00 1953.86,65.00 1953.86,65.00
             1953.86,65.00 1999.00,1.00 1999.00,1.00
             1999.00,1.00 2000.00,15.00 2000.00,15.00 Z" />
  <path id="shape_border_bottom"
        fill="none" stroke="black" stroke-width="1"
        d="M 837.00,1361.00
           C 837.00,1358.96 836.74,1355.37 837.99,1353.70
             839.27,1352.00 843.00,1351.00 845.00,1350.33
             851.59,1348.12 855.93,1346.09 863.00,1346.00
             865.53,1345.97 870.09,1345.51 871.86,1347.57
             874.77,1350.95 873.44,1360.54 879.11,1361.52
             880.91,1361.83 887.85,1360.42 890.00,1360.00
             890.00,1360.00 910.00,1356.59 910.00,1356.59
             913.30,1356.03 919.79,1354.32 922.67,1356.03
             925.26,1357.56 929.97,1366.06 931.37,1369.00
             933.03,1372.49 934.14,1376.24 935.00,1380.00
             935.00,1380.00 969.00,1369.00 969.00,1369.00
             972.27,1367.91 979.87,1364.77 982.99,1365.69
             986.68,1366.78 993.22,1375.77 995.92,1379.00
             995.92,1379.00 1019.92,1408.00 1019.92,1408.00
             1022.01,1410.51 1029.41,1419.90 1031.59,1421.10
             1034.43,1422.68 1040.98,1419.67 1044.00,1418.67
             1044.00,1418.67 1064.00,1412.00 1064.00,1412.00
             1066.89,1411.04 1072.09,1408.97 1075.00,1409.39
             1078.55,1409.91 1083.17,1414.14 1086.00,1416.40
             1086.00,1416.40 1107.00,1433.00 1107.00,1433.00
             1109.40,1434.92 1115.30,1440.10 1118.00,1440.68
             1121.41,1441.41 1130.67,1435.98 1134.00,1434.22
             1134.00,1434.22 1169.00,1415.75 1169.00,1415.75
             1172.73,1413.89 1178.85,1409.96 1183.00,1410.74
             1185.36,1411.18 1193.36,1415.43 1196.00,1416.75
             1196.00,1416.75 1221.00,1429.25 1221.00,1429.25
             1224.12,1430.81 1231.97,1435.14 1235.00,1435.43
             1238.20,1435.73 1246.56,1432.48 1250.00,1431.33
             1250.00,1431.33 1278.00,1422.33 1278.00,1422.33
             1281.14,1421.31 1289.17,1418.29 1292.00,1418.31
             1296.75,1418.35 1307.59,1426.78 1312.00,1429.66
             1337.61,1446.38 1337.49,1445.39 1361.00,1467.00
             1361.00,1467.00 1390.12,1428.00 1390.12,1428.00
             1395.80,1420.55 1409.72,1400.90 1416.00,1396.00
             1416.00,1396.00 1445.00,1416.66 1445.00,1416.66
             1447.68,1418.50 1452.70,1423.00 1456.00,1421.89
             1458.04,1421.20 1463.89,1415.26 1466.00,1413.42
             1466.00,1413.42 1492.00,1389.58 1492.00,1389.58
             1494.51,1387.40 1501.07,1380.20 1504.00,1380.20
             1507.30,1380.20 1511.92,1386.60 1514.05,1389.00
             1514.05,1389.00 1534.95,1413.00 1534.95,1413.00
             1538.46,1416.94 1540.22,1420.63 1546.00,1420.19
             1546.00,1420.19 1624.00,1407.25 1624.00,1407.25
             1624.00,1407.25 1645.00,1403.75 1645.00,1403.75
             1647.37,1403.36 1652.84,1402.16 1654.96,1402.77
             1657.84,1403.59 1659.89,1406.70 1661.58,1409.00
             1665.06,1413.77 1670.82,1420.89 1673.00,1426.00
             1673.00,1426.00 1675.00,1426.00 1675.00,1426.00
             1675.00,1426.00 1695.69,1384.00 1695.69,1384.00
             1695.69,1384.00 1704.39,1369.28 1704.39,1369.28
             1704.39,1369.28 1720.00,1365.75 1720.00,1365.75
             1720.00,1365.75 1751.00,1359.75 1751.00,1359.75
             1751.00,1359.75 1774.00,1355.10 1774.00,1355.10
             1774.00,1355.10 1783.37,1355.10 1783.37,1355.10
             1783.37,1355.10 1791.75,1370.00 1791.75,1370.00
             1791.75,1370.00 1810.75,1410.00 1810.75,1410.00
             1810.75,1410.00 1820.39,1426.98 1820.39,1426.98
             1820.39,1426.98 1828.00,1428.00 1828.00,1428.00
             1828.00,1428.00 1855.00,1429.00 1855.00,1429.00
             1855.00,1429.00 1861.35,1395.00 1861.35,1395.00
             1861.35,1395.00 1867.00,1368.00 1867.00,1368.00
             1867.00,1368.00 1891.00,1391.00 1891.00,1391.00
             1891.00,1391.00 1933.00,1433.00 1933.00,1433.00
             1933.00,1433.00 1976.00,1476.00 1976.00,1476.00
             1976.00,1476.00 1999.00,1500.00 1999.00,1500.00
             1999.00,1500.00 585.00,1500.00 585.00,1500.00
             585.00,1500.00 173.00,1500.00 173.00,1500.00
             173.00,1500.00 53.00,1500.00 53.00,1500.00
             53.00,1500.00 18.00,1500.00 18.00,1500.00
             18.00,1500.00 1.00,1499.00 1.00,1499.00
             1.00,1499.00 77.00,1455.72 77.00,1455.72
             77.00,1455.72 109.00,1437.81 109.00,1437.81
             109.00,1437.81 137.00,1434.42 137.00,1434.42
             137.00,1434.42 170.00,1430.91 170.00,1430.91
             173.19,1430.49 179.62,1429.08 182.37,1430.91
             185.00,1432.83 189.07,1442.73 190.00,1446.00
             190.00,1446.00 219.00,1432.72 219.00,1432.72
             222.51,1431.98 232.02,1434.46 234.91,1436.56
             238.70,1439.32 248.67,1452.59 251.00,1457.00
             258.55,1452.21 273.27,1438.24 281.00,1431.58
             283.88,1429.10 290.35,1422.44 294.00,1422.22
             297.04,1422.04 311.28,1429.95 315.00,1431.74
             315.00,1431.74 359.00,1447.34 359.00,1447.34
             362.91,1448.70 373.39,1453.32 377.00,1452.63
             380.15,1452.03 385.39,1447.09 388.00,1444.92
             388.00,1444.92 411.00,1425.75 411.00,1425.75
             413.02,1424.07 418.79,1418.86 421.00,1418.31
             424.41,1417.45 429.36,1422.17 432.00,1424.12
             432.00,1424.12 450.00,1437.37 450.00,1437.37
             451.87,1438.78 456.22,1442.53 458.42,1442.69
             460.98,1442.88 470.31,1436.97 473.00,1435.42
             473.00,1435.42 501.00,1419.42 501.00,1419.42
             504.33,1417.51 511.52,1412.94 515.00,1412.56
             519.49,1412.06 528.59,1415.05 531.83,1418.14
             536.04,1422.16 538.76,1427.97 544.00,1430.86
             546.55,1432.27 554.73,1434.05 558.00,1434.87
             558.00,1434.87 586.00,1442.00 586.00,1442.00
             586.00,1442.00 589.72,1412.00 589.72,1412.00
             589.72,1412.00 596.00,1362.00 596.00,1362.00
             596.00,1362.00 616.00,1359.00 616.00,1359.00
             616.00,1359.00 620.63,1392.00 620.63,1392.00
             620.63,1392.00 634.58,1424.00 634.58,1424.00
             636.39,1428.18 641.85,1442.00 645.21,1443.98
             647.29,1445.20 650.63,1445.00 653.00,1445.00
             653.00,1445.00 690.00,1445.00 690.00,1445.00
             698.37,1444.94 698.10,1443.35 701.28,1436.00
             702.46,1433.26 703.91,1428.00 707.21,1427.47
             709.13,1427.15 716.68,1429.29 719.00,1429.87
             728.11,1432.15 736.54,1434.99 746.00,1435.00
             746.00,1435.00 780.00,1435.00 780.00,1435.00
             780.00,1435.00 792.00,1434.09 792.00,1434.09
             792.00,1434.09 837.00,1431.00 837.00,1431.00
             837.00,1431.00 837.00,1361.00 837.00,1361.00 Z" />
  <path id="shape_border_left"
        fill="none" stroke="black" stroke-width="1"
        d="M 17.37,23.00
           C 25.77,34.20 37.67,48.84 43.75,61.00
             45.45,64.39 53.00,78.21 52.77,81.00
             52.38,85.54 40.57,94.48 37.00,98.01
             35.07,99.92 31.39,102.94 32.20,106.00
             32.95,108.87 41.44,116.20 44.00,118.42
             50.32,123.91 65.55,137.78 70.00,144.00
             70.00,144.00 53.40,171.00 53.40,171.00
             51.73,173.78 47.92,178.72 49.09,182.00
             49.85,184.10 53.36,187.35 55.00,189.00
             58.52,192.54 71.28,204.60 72.98,208.00
             73.98,210.00 73.96,211.83 74.00,214.00
             74.24,227.11 70.02,229.55 62.72,240.00
             62.72,240.00 49.98,259.00 49.98,259.00
             47.73,262.26 39.51,272.48 39.85,276.00
             40.08,278.39 43.47,282.09 45.00,284.00
             45.00,284.00 59.00,301.00 59.00,301.00
             60.63,303.03 64.81,307.48 64.81,310.00
             64.81,312.66 59.21,318.76 57.39,321.00
             57.39,321.00 35.52,348.00 35.52,348.00
             32.85,352.22 32.31,359.05 31.39,364.00
             31.39,364.00 25.00,399.00 25.00,399.00
             25.00,399.00 64.00,405.00 64.00,405.00
             64.00,405.00 58.81,451.00 58.81,451.00
             58.61,454.46 56.61,463.87 58.81,466.49
             60.17,468.37 64.70,469.54 67.00,470.34
             67.00,470.34 86.00,477.31 86.00,477.31
             89.09,478.41 94.84,479.30 95.40,483.13
             95.40,483.13 92.92,500.00 92.92,500.00
             92.17,504.55 89.20,525.15 87.69,527.79
             85.95,530.81 79.54,534.94 76.00,533.77
             74.43,533.25 70.64,530.15 69.00,529.00
             69.00,529.00 56.80,562.00 56.80,562.00
             56.80,562.00 50.50,575.30 50.50,575.30
             50.50,575.30 38.00,580.00 38.00,580.00
             38.00,580.00 48.86,604.00 48.86,604.00
             48.86,604.00 60.14,629.00 60.14,629.00
             60.14,629.00 70.07,650.95 70.07,650.95
             74.15,657.27 86.07,658.10 90.58,661.84
             92.97,663.81 95.21,670.91 95.92,674.00
             97.22,679.72 92.72,686.91 90.26,692.00
             88.06,696.55 82.41,710.78 79.61,713.61
             76.77,716.48 68.01,719.87 64.00,721.00
             68.91,727.54 89.35,742.29 97.00,748.40
             99.53,750.42 107.80,755.86 107.80,759.04
             107.80,762.25 102.26,766.29 100.00,768.28
             100.00,768.28 75.00,790.83 75.00,790.83
             72.59,793.00 65.10,798.17 66.20,801.82
             66.75,803.67 70.42,806.00 72.00,807.14
             76.61,810.47 80.30,812.56 84.00,817.00
             84.00,817.00 42.00,868.00 42.00,868.00
             42.00,868.00 79.00,901.09 79.00,901.09
             81.57,903.47 93.93,915.11 96.00,916.08
             101.26,918.52 112.41,910.62 118.00,910.83
             121.51,910.96 124.49,914.52 127.00,916.72
             132.89,921.86 144.84,930.86 147.06,938.00
             147.94,940.80 149.83,948.40 148.81,951.00
             146.70,956.37 133.00,964.92 131.51,969.42
             130.81,971.55 132.42,974.99 133.20,977.00
             133.20,977.00 140.00,995.00 140.00,995.00
             140.00,995.00 108.00,1013.00 108.00,1013.00
             108.00,1013.00 123.00,1049.00 123.00,1049.00
             123.00,1049.00 80.00,1059.37 80.00,1059.37
             76.45,1060.26 66.90,1061.59 65.02,1064.43
             63.77,1066.32 64.94,1076.87 65.02,1080.00
             65.08,1082.49 65.84,1090.85 67.02,1092.73
             68.67,1095.33 73.20,1096.37 76.00,1097.42
             88.21,1102.00 90.45,1100.63 93.14,1110.00
             93.14,1110.00 94.35,1115.00 94.35,1115.00
             94.61,1119.28 90.33,1123.72 87.87,1127.00
             87.87,1127.00 73.13,1147.00 73.13,1147.00
             71.19,1149.58 67.50,1153.76 67.34,1157.00
             67.20,1159.95 72.97,1173.43 74.40,1177.00
             74.40,1177.00 90.00,1217.00 90.00,1217.00
             91.37,1220.42 97.14,1234.29 97.20,1237.00
             97.29,1241.30 88.17,1252.69 84.91,1255.70
             84.91,1255.70 50.00,1281.00 50.00,1281.00
             47.54,1282.75 37.02,1289.90 35.90,1291.75
             34.40,1294.23 36.83,1298.59 37.85,1301.00
             37.85,1301.00 46.80,1323.00 46.80,1323.00
             46.80,1323.00 57.85,1350.00 57.85,1350.00
             59.10,1352.93 61.64,1359.65 63.50,1361.78
             66.53,1365.25 80.13,1370.31 85.00,1372.42
             85.00,1372.42 109.00,1383.14 109.00,1383.14
             109.00,1383.14 131.00,1393.00 131.00,1393.00
             131.00,1393.00 116.25,1425.00 116.25,1425.00
             116.25,1425.00 109.61,1437.67 109.61,1437.67
             109.61,1437.67 99.00,1444.42 99.00,1444.42
             99.00,1444.42 76.00,1457.42 76.00,1457.42
             76.00,1457.42 29.00,1483.86 29.00,1483.86
             29.00,1483.86 0.00,1500.00 0.00,1500.00
             0.00,1500.00 0.00,1.00 0.00,1.00
             5.36,5.47 12.78,16.87 17.37,23.00 Z" />
</svg>
